<svg width="117" height="74" viewBox="0 0 117 74" fill="none" xmlns="http://www.w3.org/2000/svg">
<path d="M52.0781 37.4043C52.0781 50.0345 49.9622 59.2956 45.7305 65.1875C41.4987 71.0469 35.0208 73.9766 26.2969 73.9766C17.7682 73.9766 11.3392 70.9167 7.00977 64.7969C2.68034 58.6445 0.515625 49.5137 0.515625 37.4043C0.515625 24.709 2.63151 15.3991 6.86328 9.47461C11.0951 3.55013 17.5729 0.587891 26.2969 0.587891C34.793 0.587891 41.2057 3.68034 45.5352 9.86523C49.8971 16.0176 52.0781 25.1973 52.0781 37.4043ZM19.7051 37.4043C19.7051 45.4772 20.2096 51.0273 21.2188 54.0547C22.2279 57.082 23.9206 58.5957 26.2969 58.5957C28.7057 58.5957 30.3984 57.0332 31.375 53.9082C32.3841 50.7832 32.8887 45.2819 32.8887 37.4043C32.8887 29.4941 32.3841 23.9603 31.375 20.8027C30.3659 17.6126 28.6732 16.0176 26.2969 16.0176C23.9206 16.0176 22.2279 17.5475 21.2188 20.6074C20.2096 23.6673 19.7051 29.2663 19.7051 37.4043ZM113.986 17.0918C113.986 21.5189 112.635 25.3275 109.934 28.5176C107.232 31.6751 103.326 33.9701 98.2148 35.4023V35.6953C110.129 37.1927 116.086 42.8242 116.086 52.5898C116.086 59.2305 113.449 64.4551 108.176 68.2637C102.935 72.0723 95.6432 73.9766 86.3008 73.9766C82.4596 73.9766 78.8952 73.6999 75.6074 73.1465C72.3522 72.5931 68.8203 71.584 65.0117 70.1191V54.1035C68.1367 55.6986 71.3105 56.8867 74.5332 57.668C77.7884 58.4167 80.7832 58.791 83.5176 58.791C87.7493 58.791 90.8255 58.2051 92.7461 57.0332C94.6992 55.8288 95.6758 53.957 95.6758 51.418C95.6758 49.4648 95.1712 47.9674 94.1621 46.9258C93.153 45.8516 91.5254 45.054 89.2793 44.5332C87.0332 43.9798 84.1035 43.7031 80.4902 43.7031H76.0957V29.2012H80.5879C90.3861 29.2012 95.2852 26.6947 95.2852 21.6816C95.2852 19.7936 94.5527 18.3939 93.0879 17.4824C91.6556 16.571 89.7188 16.1152 87.2773 16.1152C82.7201 16.1152 78 17.6452 73.1172 20.7051L65.1094 7.81445C68.8854 5.21029 72.7428 3.35482 76.6816 2.24805C80.653 1.14128 85.194 0.587891 90.3047 0.587891C97.694 0.587891 103.488 2.05273 107.688 4.98242C111.887 7.91211 113.986 11.9486 113.986 17.0918Z" fill="#C81912" fill-opacity="0.05"/>
</svg>
