<svg width="76" height="105" viewBox="0 0 76 105" fill="none" xmlns="http://www.w3.org/2000/svg">
<path d="M75.8906 105H1.28906V86.7188L26.3906 61.3359C33.5625 53.8359 38.25 48.7266 40.4531 46.0078C42.6562 43.2422 44.1797 40.875 45.0234 38.9062C45.9141 36.9375 46.3594 34.875 46.3594 32.7188C46.3594 30.0469 45.4922 27.9375 43.7578 26.3906C42.0234 24.8438 39.5859 24.0703 36.4453 24.0703C33.2109 24.0703 29.9297 25.0078 26.6016 26.8828C23.3203 28.7109 19.5938 31.4297 15.4219 35.0391L0.164062 17.1797C5.46094 12.4453 9.91406 9.07031 13.5234 7.05469C17.1328 4.99219 21.0469 3.42187 25.2656 2.34375C29.5312 1.26563 34.3125 0.726562 39.6094 0.726562C46.2656 0.726562 52.1953 1.89844 57.3984 4.24219C62.6484 6.58594 66.7031 9.9375 69.5625 14.2969C72.4688 18.6094 73.9219 23.4609 73.9219 28.8516C73.9219 32.8828 73.4062 36.6094 72.375 40.0312C71.3906 43.4531 69.8438 46.8281 67.7344 50.1562C65.625 53.4375 62.8125 56.9062 59.2969 60.5625C55.8281 64.2188 48.3984 71.1562 37.0078 81.375V82.0781H75.8906V105Z" fill="#F5F5F5"/>
</svg>
