<svg width="117" height="74" viewBox="0 0 117 74" fill="none" xmlns="http://www.w3.org/2000/svg">
<path d="M52.0781 37.4043C52.0781 50.0345 49.9622 59.2956 45.7305 65.1875C41.4987 71.0469 35.0208 73.9766 26.2969 73.9766C17.7682 73.9766 11.3392 70.9167 7.00977 64.7969C2.68034 58.6445 0.515625 49.5137 0.515625 37.4043C0.515625 24.709 2.63151 15.3991 6.86328 9.47461C11.0951 3.55013 17.5729 0.587891 26.2969 0.587891C34.793 0.587891 41.2057 3.68034 45.5352 9.86523C49.8971 16.0176 52.0781 25.1973 52.0781 37.4043ZM19.7051 37.4043C19.7051 45.4772 20.2096 51.0273 21.2188 54.0547C22.2279 57.082 23.9206 58.5957 26.2969 58.5957C28.7057 58.5957 30.3984 57.0332 31.375 53.9082C32.3841 50.7832 32.8887 45.2819 32.8887 37.4043C32.8887 29.4941 32.3841 23.9603 31.375 20.8027C30.3659 17.6126 28.6732 16.0176 26.2969 16.0176C23.9206 16.0176 22.2279 17.5475 21.2188 20.6074C20.2096 23.6673 19.7051 29.2663 19.7051 37.4043ZM116.379 73H64.5723V60.3047L82.0039 42.6777C86.9844 37.4694 90.2396 33.9212 91.7695 32.0332C93.2995 30.1126 94.3574 28.4688 94.9434 27.1016C95.5618 25.7344 95.8711 24.3021 95.8711 22.8047C95.8711 20.9492 95.2689 19.4844 94.0645 18.4102C92.86 17.3359 91.1673 16.7988 88.9863 16.7988C86.7402 16.7988 84.4616 17.4499 82.1504 18.752C79.8717 20.0215 77.2839 21.9095 74.3867 24.416L63.791 12.0137C67.4694 8.72591 70.5618 6.38216 73.0684 4.98242C75.5749 3.55013 78.293 2.45964 81.2227 1.71094C84.1849 0.96224 87.5052 0.587891 91.1836 0.587891C95.806 0.587891 99.9238 1.40169 103.537 3.0293C107.183 4.6569 109.999 6.98438 111.984 10.0117C114.003 13.0065 115.012 16.3757 115.012 20.1191C115.012 22.9186 114.654 25.5065 113.938 27.8828C113.254 30.2591 112.18 32.6029 110.715 34.9141C109.25 37.1927 107.297 39.6016 104.855 42.1406C102.447 44.6797 97.2871 49.4974 89.377 56.5938V57.082H116.379V73Z" fill="#00505C" fill-opacity="0.05"/>
</svg>
