<svg width="108" height="74" viewBox="0 0 108 74" fill="none" xmlns="http://www.w3.org/2000/svg">
<path d="M52.0781 37.4043C52.0781 50.0345 49.9622 59.2956 45.7305 65.1875C41.4987 71.0469 35.0208 73.9766 26.2969 73.9766C17.7682 73.9766 11.3392 70.9167 7.00977 64.7969C2.68034 58.6445 0.515625 49.5137 0.515625 37.4043C0.515625 24.709 2.63151 15.3991 6.86328 9.47461C11.0951 3.55013 17.5729 0.587891 26.2969 0.587891C34.793 0.587891 41.2057 3.68034 45.5352 9.86523C49.8971 16.0176 52.0781 25.1973 52.0781 37.4043ZM19.7051 37.4043C19.7051 45.4772 20.2096 51.0273 21.2188 54.0547C22.2279 57.082 23.9206 58.5957 26.2969 58.5957C28.7057 58.5957 30.3984 57.0332 31.375 53.9082C32.3841 50.7832 32.8887 45.2819 32.8887 37.4043C32.8887 29.4941 32.3841 23.9603 31.375 20.8027C30.3659 17.6126 28.6732 16.0176 26.2969 16.0176C23.9206 16.0176 22.2279 17.5475 21.2188 20.6074C20.2096 23.6673 19.7051 29.2663 19.7051 37.4043ZM107.59 73H88.0098V35.207C88.0098 30.6172 88.1074 26.418 88.3027 22.6094C87.0983 24.0742 85.6009 25.6042 83.8105 27.1992L75.7051 33.8887L65.6953 21.584L90.207 1.61328H107.59V73Z" fill="#C81912" fill-opacity="0.05"/>
</svg>
