<svg width="25" height="25" viewBox="0 0 25 25" fill="none" xmlns="http://www.w3.org/2000/svg">
<circle cx="12.5" cy="12.5" r="12.5" fill="#00505C"/>
<path d="M19.576 16.0085L17.4827 13.9152C16.7351 13.1676 15.4641 13.4667 15.1651 14.4385C14.9408 15.1114 14.1932 15.4852 13.5204 15.3356C12.0252 14.9618 10.0066 13.0181 9.63283 11.4481C9.40855 10.7752 9.85712 10.0276 10.53 9.80336C11.5018 9.50432 11.8009 8.23339 11.0533 7.48578L8.95999 5.39249C8.36191 4.86917 7.46478 4.86917 6.94146 5.39249L5.52101 6.81294C4.10056 8.30815 5.67053 12.2705 9.18427 15.7842C12.698 19.2979 16.6603 20.9427 18.1555 19.4475L19.576 18.027C20.0993 17.4289 20.0993 16.5318 19.576 16.0085Z" fill="white"/>
</svg>
